<?xml version="1.0" encoding="UTF-8"?>
<svg xmlns="http://www.w3.org/2000/svg" xmlns:xlink="http://www.w3.org/1999/xlink" width="768pt" height="767.999994pt" viewBox="0 0 768 767.999994" version="1.2">
<defs>
<clipPath id="clip1">
  <path d="M 318 262 L 689 262 L 689 633 L 318 633 Z M 318 262 "/>
</clipPath>
<clipPath id="clip2">
  <path d="M 414.714844 201.476562 L 749.441406 358.550781 L 592.367188 693.277344 L 257.640625 536.203125 Z M 414.714844 201.476562 "/>
</clipPath>
<clipPath id="clip3">
  <path d="M 414.714844 201.476562 L 749.441406 358.550781 L 592.367188 693.277344 L 257.640625 536.203125 Z M 414.714844 201.476562 "/>
</clipPath>
<clipPath id="clip4">
  <path d="M 331 275 L 676 275 L 676 620 L 331 620 Z M 331 275 "/>
</clipPath>
<clipPath id="clip5">
  <path d="M 414.714844 201.476562 L 749.441406 358.550781 L 592.367188 693.277344 L 257.640625 536.203125 Z M 414.714844 201.476562 "/>
</clipPath>
<clipPath id="clip6">
  <path d="M 414.714844 201.476562 L 749.441406 358.550781 L 592.367188 693.277344 L 257.640625 536.203125 Z M 414.714844 201.476562 "/>
</clipPath>
<clipPath id="clip7">
  <path d="M 340 284 L 666 284 L 666 610 L 340 610 Z M 340 284 "/>
</clipPath>
<clipPath id="clip8">
  <path d="M 414.714844 201.476562 L 749.441406 358.550781 L 592.367188 693.277344 L 257.640625 536.203125 Z M 414.714844 201.476562 "/>
</clipPath>
<clipPath id="clip9">
  <path d="M 414.714844 201.476562 L 749.441406 358.550781 L 592.367188 693.277344 L 257.640625 536.203125 Z M 414.714844 201.476562 "/>
</clipPath>
<clipPath id="clip10">
  <path d="M 349 294 L 658 294 L 658 601 L 349 601 Z M 349 294 "/>
</clipPath>
<clipPath id="clip11">
  <path d="M 414.714844 201.476562 L 749.441406 358.550781 L 592.367188 693.277344 L 257.640625 536.203125 Z M 414.714844 201.476562 "/>
</clipPath>
<clipPath id="clip12">
  <path d="M 414.714844 201.476562 L 749.441406 358.550781 L 592.367188 693.277344 L 257.640625 536.203125 Z M 414.714844 201.476562 "/>
</clipPath>
<clipPath id="clip13">
  <path d="M 358 302 L 649 302 L 649 592 L 358 592 Z M 358 302 "/>
</clipPath>
<clipPath id="clip14">
  <path d="M 414.714844 201.476562 L 749.441406 358.550781 L 592.367188 693.277344 L 257.640625 536.203125 Z M 414.714844 201.476562 "/>
</clipPath>
<clipPath id="clip15">
  <path d="M 414.714844 201.476562 L 749.441406 358.550781 L 592.367188 693.277344 L 257.640625 536.203125 Z M 414.714844 201.476562 "/>
</clipPath>
<clipPath id="clip16">
  <path d="M 369 313 L 637 313 L 637 581 L 369 581 Z M 369 313 "/>
</clipPath>
<clipPath id="clip17">
  <path d="M 414.714844 201.476562 L 749.441406 358.550781 L 592.367188 693.277344 L 257.640625 536.203125 Z M 414.714844 201.476562 "/>
</clipPath>
<clipPath id="clip18">
  <path d="M 414.714844 201.476562 L 749.441406 358.550781 L 592.367188 693.277344 L 257.640625 536.203125 Z M 414.714844 201.476562 "/>
</clipPath>
<clipPath id="clip19">
  <path d="M 380 324 L 627 324 L 627 571 L 380 571 Z M 380 324 "/>
</clipPath>
<clipPath id="clip20">
  <path d="M 414.714844 201.476562 L 749.441406 358.550781 L 592.367188 693.277344 L 257.640625 536.203125 Z M 414.714844 201.476562 "/>
</clipPath>
<clipPath id="clip21">
  <path d="M 414.714844 201.476562 L 749.441406 358.550781 L 592.367188 693.277344 L 257.640625 536.203125 Z M 414.714844 201.476562 "/>
</clipPath>
<clipPath id="clip22">
  <path d="M 389 333 L 618 333 L 618 562 L 389 562 Z M 389 333 "/>
</clipPath>
<clipPath id="clip23">
  <path d="M 414.714844 201.476562 L 749.441406 358.550781 L 592.367188 693.277344 L 257.640625 536.203125 Z M 414.714844 201.476562 "/>
</clipPath>
<clipPath id="clip24">
  <path d="M 414.714844 201.476562 L 749.441406 358.550781 L 592.367188 693.277344 L 257.640625 536.203125 Z M 414.714844 201.476562 "/>
</clipPath>
<clipPath id="clip25">
  <path d="M 399 343 L 608 343 L 608 552 L 399 552 Z M 399 343 "/>
</clipPath>
<clipPath id="clip26">
  <path d="M 414.714844 201.476562 L 749.441406 358.550781 L 592.367188 693.277344 L 257.640625 536.203125 Z M 414.714844 201.476562 "/>
</clipPath>
<clipPath id="clip27">
  <path d="M 414.714844 201.476562 L 749.441406 358.550781 L 592.367188 693.277344 L 257.640625 536.203125 Z M 414.714844 201.476562 "/>
</clipPath>
<clipPath id="clip28">
  <path d="M 408 352 L 598 352 L 598 542 L 408 542 Z M 408 352 "/>
</clipPath>
<clipPath id="clip29">
  <path d="M 414.714844 201.476562 L 749.441406 358.550781 L 592.367188 693.277344 L 257.640625 536.203125 Z M 414.714844 201.476562 "/>
</clipPath>
<clipPath id="clip30">
  <path d="M 414.714844 201.476562 L 749.441406 358.550781 L 592.367188 693.277344 L 257.640625 536.203125 Z M 414.714844 201.476562 "/>
</clipPath>
<clipPath id="clip31">
  <path d="M 418 362 L 589 362 L 589 533 L 418 533 Z M 418 362 "/>
</clipPath>
<clipPath id="clip32">
  <path d="M 414.714844 201.476562 L 749.441406 358.550781 L 592.367188 693.277344 L 257.640625 536.203125 Z M 414.714844 201.476562 "/>
</clipPath>
<clipPath id="clip33">
  <path d="M 414.714844 201.476562 L 749.441406 358.550781 L 592.367188 693.277344 L 257.640625 536.203125 Z M 414.714844 201.476562 "/>
</clipPath>
<clipPath id="clip34">
  <path d="M 441 385 L 565 385 L 565 509 L 441 509 Z M 441 385 "/>
</clipPath>
<clipPath id="clip35">
  <path d="M 414.714844 201.476562 L 749.441406 358.550781 L 592.367188 693.277344 L 257.640625 536.203125 Z M 414.714844 201.476562 "/>
</clipPath>
<clipPath id="clip36">
  <path d="M 414.714844 201.476562 L 749.441406 358.550781 L 592.367188 693.277344 L 257.640625 536.203125 Z M 414.714844 201.476562 "/>
</clipPath>
<clipPath id="clip37">
  <path d="M 427 371 L 579 371 L 579 523 L 427 523 Z M 427 371 "/>
</clipPath>
<clipPath id="clip38">
  <path d="M 414.714844 201.476562 L 749.441406 358.550781 L 592.367188 693.277344 L 257.640625 536.203125 Z M 414.714844 201.476562 "/>
</clipPath>
<clipPath id="clip39">
  <path d="M 414.714844 201.476562 L 749.441406 358.550781 L 592.367188 693.277344 L 257.640625 536.203125 Z M 414.714844 201.476562 "/>
</clipPath>
<clipPath id="clip40">
  <path d="M 78 112 L 581 112 L 581 615 L 78 615 Z M 78 112 "/>
</clipPath>
<clipPath id="clip41">
  <path d="M 231.554688 89.503906 L 603.761719 265.574219 L 427.6875 637.78125 L 55.484375 461.707031 Z M 231.554688 89.503906 "/>
</clipPath>
<clipPath id="clip42">
  <path d="M 231.554688 89.503906 L 603.761719 265.574219 L 427.6875 637.78125 L 55.484375 461.707031 Z M 231.554688 89.503906 "/>
</clipPath>
<clipPath id="clip43">
  <path d="M 231.554688 89.503906 L 603.644531 265.519531 L 427.628906 637.609375 L 55.539062 461.59375 Z M 231.554688 89.503906 "/>
</clipPath>
<clipPath id="clip44">
  <path d="M 94 128 L 565 128 L 565 599 L 94 599 Z M 94 128 "/>
</clipPath>
<clipPath id="clip45">
  <path d="M 238.90625 107.539062 L 585.515625 272.824219 L 420.230469 619.433594 L 73.621094 454.148438 Z M 238.90625 107.539062 "/>
</clipPath>
<clipPath id="clip46">
  <path d="M 238.90625 107.539062 L 585.515625 272.824219 L 420.230469 619.433594 L 73.621094 454.148438 Z M 238.90625 107.539062 "/>
</clipPath>
<clipPath id="clip47">
  <path d="M 91 125 L 568 125 L 568 602 L 91 602 Z M 91 125 "/>
</clipPath>
<clipPath id="clip48">
  <path d="M 238.90625 107.539062 L 585.515625 272.824219 L 420.230469 619.433594 L 73.621094 454.148438 Z M 238.90625 107.539062 "/>
</clipPath>
<clipPath id="clip49">
  <path d="M 238.90625 107.539062 L 585.515625 272.824219 L 420.230469 619.433594 L 73.621094 454.148438 Z M 238.90625 107.539062 "/>
</clipPath>
</defs>
<g id="surface1">
<g clip-path="url(#clip1)" clip-rule="nonzero">
<g clip-path="url(#clip2)" clip-rule="nonzero">
<g clip-path="url(#clip3)" clip-rule="nonzero">
<path style=" stroke:none;fill-rule:nonzero;fill:rgb(0%,0%,0%);fill-opacity:1;" d="M 477.375 503.183594 C 446.566406 488.726562 433.304688 452.019531 447.765625 421.207031 C 462.226562 390.390625 498.929688 377.132812 529.742188 391.589844 C 560.558594 406.050781 573.816406 442.753906 559.355469 473.570312 C 544.894531 504.382812 508.195312 517.644531 477.375 503.183594 Z M 582.105469 279.996094 C 489.660156 236.617188 379.554688 276.394531 336.171875 368.839844 C 292.792969 461.285156 332.566406 571.390625 425.011719 614.773438 C 517.457031 658.152344 627.566406 618.378906 670.949219 525.933594 C 714.328125 433.492188 674.550781 323.378906 582.105469 279.996094 "/>
</g>
</g>
</g>
<g clip-path="url(#clip4)" clip-rule="nonzero">
<g clip-path="url(#clip5)" clip-rule="nonzero">
<g clip-path="url(#clip6)" clip-rule="nonzero">
<path style=" stroke:none;fill-rule:nonzero;fill:rgb(0%,0%,0%);fill-opacity:1;" d="M 576.234375 291.957031 L 576.398438 291.609375 C 490.421875 251.265625 388.019531 288.257812 347.671875 374.238281 C 307.328125 460.214844 344.316406 562.617188 430.292969 602.960938 C 516.269531 643.308594 618.675781 606.316406 659.019531 520.339844 C 699.367188 434.359375 662.375 331.957031 576.398438 291.609375 L 576.070312 292.304688 C 618.867188 312.390625 649.472656 347.914062 664.355469 389.121094 C 679.242188 430.332031 678.40625 477.214844 658.324219 520.011719 C 638.242188 562.808594 602.714844 593.414062 561.507812 608.296875 C 520.300781 623.183594 473.414062 622.347656 430.621094 602.265625 C 387.824219 582.183594 357.21875 546.65625 342.335938 505.449219 C 327.449219 464.242188 328.285156 417.359375 348.367188 374.5625 C 368.453125 331.765625 403.976562 301.160156 445.183594 286.273438 C 486.390625 271.386719 533.273438 272.222656 576.070312 292.304688 L 576.234375 291.957031 "/>
</g>
</g>
</g>
<g clip-path="url(#clip7)" clip-rule="nonzero">
<g clip-path="url(#clip8)" clip-rule="nonzero">
<g clip-path="url(#clip9)" clip-rule="nonzero">
<path style=" stroke:none;fill-rule:nonzero;fill:rgb(0%,0%,0%);fill-opacity:1;" d="M 572.179688 300.59375 L 572.34375 300.242188 C 491.136719 262.136719 394.414062 297.078125 356.304688 378.289062 C 318.199219 459.492188 353.136719 556.21875 434.347656 594.324219 C 515.554688 632.433594 612.277344 597.492188 650.382812 516.285156 C 688.492188 435.074219 653.554688 338.351562 572.34375 300.242188 L 572.015625 300.949219 C 612.425781 319.910156 641.324219 353.453125 655.378906 392.363281 C 669.429688 431.277344 668.644531 475.542969 649.679688 515.953125 C 630.714844 556.367188 597.175781 585.257812 558.261719 599.316406 C 519.355469 613.375 475.089844 612.585938 434.675781 593.625 C 394.265625 574.65625 365.367188 541.113281 351.3125 502.207031 C 337.261719 463.292969 338.046875 419.03125 357.011719 378.617188 C 375.972656 338.207031 409.515625 309.308594 448.429688 295.25 C 487.335938 281.195312 531.601562 281.984375 572.015625 300.949219 L 572.179688 300.59375 "/>
</g>
</g>
</g>
<g clip-path="url(#clip10)" clip-rule="nonzero">
<g clip-path="url(#clip11)" clip-rule="nonzero">
<g clip-path="url(#clip12)" clip-rule="nonzero">
<path style=" stroke:none;fill-rule:nonzero;fill:rgb(0%,0%,0%);fill-opacity:1;" d="M 568.167969 309.148438 L 568.332031 308.792969 C 491.445312 272.710938 400.015625 305.46875 364.121094 381.957031 C 328.226562 458.445312 361.46875 549.699219 438.355469 585.78125 C 515.25 621.863281 606.679688 589.109375 642.570312 512.621094 C 678.464844 436.132812 645.226562 344.875 568.332031 308.792969 L 568 309.5 C 606.253906 327.453125 633.644531 359.121094 647.011719 395.820312 C 660.375 432.519531 659.714844 474.238281 641.859375 512.285156 C 624.003906 550.332031 592.339844 577.503906 555.574219 590.675781 C 518.804688 603.847656 476.941406 603.023438 438.6875 585.070312 C 400.4375 567.121094 373.046875 535.449219 359.683594 498.753906 C 346.320312 462.054688 346.980469 420.335938 364.835938 382.289062 C 382.6875 344.242188 414.355469 317.070312 451.121094 303.898438 C 487.886719 290.726562 529.753906 291.550781 568 309.5 L 568.167969 309.148438 "/>
</g>
</g>
</g>
<g clip-path="url(#clip13)" clip-rule="nonzero">
<g clip-path="url(#clip14)" clip-rule="nonzero">
<g clip-path="url(#clip15)" clip-rule="nonzero">
<path style=" stroke:none;fill-rule:nonzero;fill:rgb(0%,0%,0%);fill-opacity:1;" d="M 564.628906 316.6875 L 564.796875 316.328125 C 492.476562 282.390625 406.328125 313.511719 372.390625 385.835938 C 338.453125 458.15625 369.570312 544.300781 441.894531 578.242188 C 514.214844 612.179688 600.363281 581.058594 634.300781 508.738281 C 668.238281 436.414062 637.117188 350.265625 564.796875 316.328125 L 564.460938 317.042969 C 600.425781 333.921875 626.140625 363.777344 638.652344 398.410156 C 651.164062 433.039062 650.460938 472.4375 633.582031 508.402344 C 616.707031 544.367188 586.851562 570.082031 552.222656 582.589844 C 517.589844 595.097656 478.195312 594.398438 442.230469 577.523438 C 406.265625 560.644531 380.550781 530.792969 368.042969 496.160156 C 355.535156 461.53125 356.234375 422.140625 373.109375 386.171875 C 389.988281 350.207031 419.84375 324.488281 454.472656 311.980469 C 489.101562 299.472656 528.496094 300.167969 564.460938 317.042969 L 564.628906 316.6875 "/>
</g>
</g>
</g>
<g clip-path="url(#clip16)" clip-rule="nonzero">
<g clip-path="url(#clip17)" clip-rule="nonzero">
<g clip-path="url(#clip18)" clip-rule="nonzero">
<path style=" stroke:none;fill-rule:nonzero;fill:rgb(0%,0%,0%);fill-opacity:1;" d="M 559.890625 326.785156 L 560.054688 326.433594 C 493.308594 295.109375 413.8125 323.828125 382.488281 390.574219 C 351.167969 457.320312 379.886719 536.820312 446.632812 568.140625 C 513.378906 599.460938 592.878906 570.746094 624.199219 504 C 655.519531 437.25 626.804688 357.753906 560.054688 326.433594 L 559.722656 327.140625 C 592.902344 342.710938 616.628906 370.253906 628.167969 402.195312 C 639.707031 434.140625 639.058594 470.488281 623.492188 503.664062 C 607.921875 536.84375 580.378906 560.570312 548.433594 572.109375 C 516.488281 583.648438 480.144531 583.003906 446.964844 567.433594 C 413.785156 551.863281 390.0625 524.320312 378.523438 492.375 C 366.984375 460.433594 367.628906 424.085938 383.199219 390.90625 C 398.769531 357.726562 426.308594 334.003906 458.253906 322.464844 C 490.199219 310.925781 526.546875 311.570312 559.722656 327.140625 L 559.890625 326.785156 "/>
</g>
</g>
</g>
<g clip-path="url(#clip19)" clip-rule="nonzero">
<g clip-path="url(#clip20)" clip-rule="nonzero">
<g clip-path="url(#clip21)" clip-rule="nonzero">
<path style=" stroke:none;fill-rule:nonzero;fill:rgb(0%,0%,0%);fill-opacity:1;" d="M 555.332031 336.503906 L 555.496094 336.152344 C 494.117188 307.347656 421.007812 333.753906 392.203125 395.132812 C 363.402344 456.511719 389.816406 529.621094 451.195312 558.421875 C 512.574219 587.226562 585.679688 560.816406 614.480469 499.4375 C 643.28125 438.058594 616.878906 364.953125 555.496094 336.152344 L 555.164062 336.859375 C 585.660156 351.167969 607.464844 376.480469 618.070312 405.84375 C 628.679688 435.203125 628.082031 468.613281 613.773438 499.105469 C 599.460938 529.601562 574.148438 551.40625 544.785156 562.015625 C 515.425781 572.621094 482.023438 572.023438 451.527344 557.714844 C 421.027344 543.402344 399.222656 518.089844 388.617188 488.734375 C 378.011719 459.367188 378.605469 425.964844 392.914062 395.464844 C 407.226562 364.976562 432.539062 343.164062 461.902344 332.5625 C 491.261719 321.953125 524.667969 322.546875 555.164062 336.859375 L 555.332031 336.503906 "/>
</g>
</g>
</g>
<g clip-path="url(#clip22)" clip-rule="nonzero">
<g clip-path="url(#clip23)" clip-rule="nonzero">
<g clip-path="url(#clip24)" clip-rule="nonzero">
<path style=" stroke:none;fill-rule:nonzero;fill:rgb(0%,0%,0%);fill-opacity:1;" d="M 551.578125 344.5 L 551.742188 344.148438 C 494.78125 317.417969 426.9375 341.921875 400.203125 398.886719 C 373.476562 455.847656 397.984375 523.691406 454.949219 550.421875 C 511.910156 577.152344 579.753906 552.648438 606.484375 495.6875 C 633.214844 438.71875 608.707031 370.875 551.742188 344.148438 L 551.410156 344.855469 C 579.699219 358.128906 599.925781 381.605469 609.765625 408.847656 C 619.605469 436.082031 619.050781 467.066406 605.78125 495.355469 C 592.503906 523.640625 569.023438 543.867188 541.789062 553.707031 C 514.550781 563.542969 483.566406 562.988281 455.28125 549.714844 C 426.992188 536.441406 406.765625 512.960938 396.925781 485.726562 C 387.089844 458.492188 387.640625 427.507812 400.914062 399.21875 C 414.1875 370.933594 437.667969 350.707031 464.902344 340.867188 C 492.140625 331.027344 523.125 331.582031 551.410156 344.855469 L 551.578125 344.5 "/>
</g>
</g>
</g>
<g clip-path="url(#clip25)" clip-rule="nonzero">
<g clip-path="url(#clip26)" clip-rule="nonzero">
<g clip-path="url(#clip27)" clip-rule="nonzero">
<path style=" stroke:none;fill-rule:nonzero;fill:rgb(0%,0%,0%);fill-opacity:1;" d="M 547.324219 353.5625 L 547.484375 353.21875 C 495.53125 328.839844 433.65625 351.191406 409.277344 403.144531 C 384.898438 455.097656 407.25 516.972656 459.203125 541.351562 C 511.15625 565.734375 573.03125 543.382812 597.410156 491.429688 C 621.792969 439.472656 599.441406 377.597656 547.484375 353.21875 L 547.160156 353.910156 C 572.949219 366.011719 591.386719 387.417969 600.355469 412.242188 C 609.328125 437.070312 608.820312 465.316406 596.71875 491.105469 C 584.621094 516.890625 563.21875 535.328125 538.386719 544.296875 C 513.558594 553.269531 485.3125 552.765625 459.527344 540.667969 C 433.738281 528.566406 415.300781 507.160156 406.335938 482.328125 C 397.367188 457.503906 397.867188 429.253906 409.96875 403.46875 C 422.070312 377.683594 443.476562 359.246094 468.300781 350.277344 C 493.128906 341.308594 521.375 341.8125 547.160156 353.910156 L 547.324219 353.5625 "/>
</g>
</g>
</g>
<g clip-path="url(#clip28)" clip-rule="nonzero">
<g clip-path="url(#clip29)" clip-rule="nonzero">
<g clip-path="url(#clip30)" clip-rule="nonzero">
<path style=" stroke:none;fill-rule:nonzero;fill:rgb(0%,0%,0%);fill-opacity:1;" d="M 543.316406 362.105469 L 543.480469 361.757812 C 496.242188 339.589844 439.980469 359.917969 417.816406 407.152344 C 395.648438 454.390625 415.96875 510.648438 463.210938 532.816406 C 510.449219 554.984375 566.707031 534.660156 588.875 487.421875 C 611.039062 440.1875 590.71875 383.921875 543.480469 361.757812 L 543.152344 362.453125 C 566.585938 373.445312 583.332031 392.894531 591.480469 415.449219 C 599.632812 438.007812 599.171875 463.667969 588.179688 487.09375 C 577.1875 510.523438 557.742188 527.277344 535.183594 535.421875 C 512.628906 543.570312 486.964844 543.117188 463.535156 532.121094 C 440.109375 521.128906 423.359375 501.679688 415.207031 479.125 C 407.0625 456.570312 407.519531 430.90625 418.515625 407.480469 C 429.507812 384.050781 448.949219 367.300781 471.507812 359.148438 C 494.066406 351.003906 519.726562 351.457031 543.152344 362.453125 L 543.316406 362.105469 "/>
</g>
</g>
</g>
<g clip-path="url(#clip31)" clip-rule="nonzero">
<g clip-path="url(#clip32)" clip-rule="nonzero">
<g clip-path="url(#clip33)" clip-rule="nonzero">
<path style=" stroke:none;fill-rule:nonzero;fill:rgb(0%,0%,0%);fill-opacity:1;" d="M 539.203125 370.867188 L 539.367188 370.523438 C 496.976562 350.632812 446.480469 368.871094 426.582031 411.265625 C 406.691406 453.660156 424.933594 504.15625 467.324219 524.050781 C 509.71875 543.941406 560.214844 525.703125 580.109375 483.308594 C 600 440.914062 581.761719 390.417969 539.367188 370.523438 L 539.042969 371.210938 C 560.050781 381.070312 575.070312 398.507812 582.378906 418.734375 C 589.683594 438.96875 589.273438 461.976562 579.417969 482.984375 C 569.558594 503.992188 552.125 519.011719 531.894531 526.324219 C 511.664062 533.628906 488.652344 533.21875 467.644531 523.363281 C 446.640625 513.503906 431.621094 496.066406 424.3125 475.839844 C 417.007812 455.609375 417.414062 432.597656 427.273438 411.589844 C 437.132812 390.582031 454.570312 375.5625 474.796875 368.253906 C 495.027344 360.945312 518.039062 361.355469 539.042969 371.210938 L 539.203125 370.867188 "/>
</g>
</g>
</g>
<g clip-path="url(#clip34)" clip-rule="nonzero">
<g clip-path="url(#clip35)" clip-rule="nonzero">
<g clip-path="url(#clip36)" clip-rule="nonzero">
<path style=" stroke:none;fill-rule:nonzero;fill:rgb(100%,100%,100%);fill-opacity:1;" d="M 498.484375 457.644531 C 492.761719 454.960938 490.304688 448.148438 492.988281 442.425781 C 495.671875 436.707031 502.484375 434.246094 508.203125 436.929688 C 513.929688 439.617188 516.390625 446.425781 513.703125 452.148438 C 511.019531 457.867188 504.207031 460.332031 498.484375 457.644531 Z M 529.527344 391.488281 C 498.710938 377.03125 462.011719 390.289062 447.550781 421.105469 C 433.09375 451.921875 446.347656 488.621094 477.160156 503.082031 C 507.976562 517.542969 544.675781 504.28125 559.136719 473.46875 C 573.597656 442.652344 560.34375 405.949219 529.527344 391.488281 "/>
</g>
</g>
</g>
<g clip-path="url(#clip37)" clip-rule="nonzero">
<g clip-path="url(#clip38)" clip-rule="nonzero">
<g clip-path="url(#clip39)" clip-rule="nonzero">
<path style=" stroke:none;fill-rule:nonzero;fill:rgb(100%,100%,100%);fill-opacity:1;" d="M 535.078125 379.664062 L 535.40625 378.964844 C 497.671875 361.257812 452.730469 377.492188 435.023438 415.226562 C 417.316406 452.960938 433.550781 497.898438 471.285156 515.609375 C 509.019531 533.3125 553.960938 517.082031 571.667969 479.347656 C 589.375 441.613281 573.140625 396.671875 535.40625 378.964844 L 534.75 380.363281 C 553.230469 389.035156 566.441406 404.375 572.875 422.171875 C 579.296875 439.96875 578.941406 460.210938 570.269531 478.691406 C 561.59375 497.171875 546.253906 510.382812 528.460938 516.816406 C 510.664062 523.238281 490.425781 522.878906 471.941406 514.207031 C 453.460938 505.53125 440.25 490.195312 433.820312 472.40625 C 427.390625 454.605469 427.75 434.363281 436.421875 415.882812 C 445.09375 397.402344 460.433594 384.191406 478.234375 377.757812 C 496.027344 371.332031 516.265625 371.691406 534.75 380.363281 L 535.078125 379.664062 "/>
</g>
</g>
</g>
<g clip-path="url(#clip40)" clip-rule="nonzero">
<g clip-path="url(#clip41)" clip-rule="nonzero">
<g clip-path="url(#clip42)" clip-rule="nonzero">
<g clip-path="url(#clip43)" clip-rule="nonzero">
<path style=" stroke:none;fill-rule:nonzero;fill:rgb(0%,0%,0%);fill-opacity:1;" d="M 293.570312 118.839844 C 259.5 102.722656 218.335938 117.449219 202.21875 151.519531 L 84.875 399.578125 C 68.757812 433.644531 83.484375 474.8125 117.554688 490.929688 L 365.613281 608.273438 C 399.679688 624.386719 440.847656 609.660156 456.964844 575.59375 L 574.308594 327.535156 C 590.421875 293.464844 575.695312 252.300781 541.628906 236.183594 Z M 285.1875 136.558594 L 533.246094 253.902344 C 557.648438 265.445312 568.132812 294.75 556.589844 319.152344 L 439.246094 567.210938 C 427.699219 591.617188 398.398438 602.097656 373.996094 590.554688 L 125.933594 473.210938 C 101.53125 461.664062 91.050781 432.363281 102.59375 407.960938 L 219.9375 159.898438 C 231.480469 135.496094 260.785156 125.015625 285.1875 136.558594 Z M 285.1875 136.558594 "/>
</g>
</g>
</g>
</g>
<g clip-path="url(#clip44)" clip-rule="nonzero">
<g clip-path="url(#clip45)" clip-rule="nonzero">
<g clip-path="url(#clip46)" clip-rule="nonzero">
<path style=" stroke:none;fill-rule:nonzero;fill:rgb(85.099792%,85.099792%,85.099792%);fill-opacity:1;" d="M 286.726562 133.296875 L 535.390625 251.878906 C 561.109375 264.144531 572.015625 294.933594 559.757812 320.644531 L 441.175781 569.308594 C 428.910156 595.027344 398.121094 605.9375 372.410156 593.675781 L 123.738281 475.089844 C 98.027344 462.832031 87.117188 432.039062 99.378906 406.328125 L 217.960938 157.65625 C 230.222656 131.945312 261.015625 121.039062 286.726562 133.296875 Z M 286.726562 133.296875 "/>
</g>
</g>
</g>
<g clip-path="url(#clip47)" clip-rule="nonzero">
<g clip-path="url(#clip48)" clip-rule="nonzero">
<g clip-path="url(#clip49)" clip-rule="nonzero">
<path style=" stroke:none;fill-rule:nonzero;fill:rgb(85.099792%,85.099792%,85.099792%);fill-opacity:1;" d="M 371.261719 596.082031 L 122.589844 477.5 C 95.585938 464.621094 84.097656 432.179688 96.972656 405.179688 L 215.554688 156.507812 C 228.433594 129.507812 260.875 118.015625 287.875 130.890625 L 536.535156 249.46875 C 563.542969 262.347656 575.039062 294.792969 562.164062 321.792969 L 443.585938 570.457031 C 430.707031 597.460938 398.261719 608.957031 371.261719 596.082031 Z M 285.578125 135.707031 C 261.230469 124.09375 231.980469 134.453125 220.371094 158.804688 L 101.785156 407.476562 C 90.175781 431.824219 100.535156 461.074219 124.886719 472.683594 L 373.554688 591.269531 C 397.90625 602.878906 427.15625 592.515625 438.769531 568.160156 L 557.347656 319.5 C 568.960938 295.148438 558.59375 265.898438 534.242188 254.285156 Z M 285.578125 135.707031 "/>
</g>
</g>
</g>
</g>
</svg>
