<svg xmlns="http://www.w3.org/2000/svg" width="768" viewBox="0 0 768 768" height="768" version="1.0"><g fill="#FFF"><g><g><path d="M 32.398438 -50 L 18.699219 -50 L 18.699219 -61.097656 C 18.699219 -63.597656 19.398438 -65.699219 20.800781 -67.296875 C 22.199219 -68.898438 24.097656 -69.699219 26.5 -69.699219 C 28.5 -69.699219 30.398438 -69 32.199219 -67.796875 L 32.199219 -74.5 C 30.699219 -75.5 28.597656 -76 25.800781 -76 C 21.699219 -76 18.398438 -74.699219 15.898438 -72.097656 C 13.398438 -69.5 12.199219 -66.097656 12.199219 -61.898438 L 12.199219 -50 L 3.800781 -50 L 3.800781 -43.597656 L 12.199219 -43.597656 L 12.199219 0 L 18.699219 0 L 18.699219 -43.597656 L 32.398438 -43.597656 Z M 32.398438 -50" transform="translate(143.712 430.5)"/></g></g></g><g fill="#FFF"><g><g><path d="M 31.597656 1 C 38.800781 1 44.898438 -1.5 50 -6.601562 C 55 -11.601562 57.597656 -17.800781 57.597656 -25 C 57.597656 -32.199219 55 -38.300781 50 -43.398438 C 44.898438 -48.398438 38.800781 -51 31.597656 -51 C 24.398438 -51 18.300781 -48.398438 13.199219 -43.398438 C 8.101562 -38.300781 5.601562 -32.199219 5.601562 -25 C 5.601562 -17.800781 8.101562 -11.601562 13.199219 -6.601562 C 18.300781 -1.5 24.398438 1 31.597656 1 Z M 31.597656 -5.5 C 26.199219 -5.5 21.597656 -7.398438 17.800781 -11.199219 C 14 -15 12.199219 -19.597656 12.199219 -25 C 12.199219 -30.398438 14 -35 17.800781 -38.800781 C 21.597656 -42.597656 26.199219 -44.5 31.597656 -44.5 C 37 -44.5 41.597656 -42.597656 45.398438 -38.800781 C 49.199219 -35 51.097656 -30.398438 51.097656 -25 C 51.097656 -19.597656 49.199219 -15 45.398438 -11.199219 C 41.597656 -7.398438 37 -5.5 31.597656 -5.5 Z M 31.597656 -5.5" transform="translate(177.71 430.5)"/></g></g></g><g fill="#FFF"><g><g><path d="M 26.300781 1 C 31.800781 1 36.300781 -0.699219 39.800781 -4.199219 C 43.199219 -7.601562 45 -12.199219 45 -17.800781 L 45 -50 L 38.5 -50 L 38.5 -18.5 C 38.5 -14.601562 37.300781 -11.5 35.097656 -9.101562 C 32.800781 -6.699219 29.898438 -5.5 26.300781 -5.5 C 22.699219 -5.5 19.800781 -6.699219 17.5 -9.101562 C 15.199219 -11.5 14.101562 -14.601562 14.101562 -18.5 L 14.101562 -50 L 7.5 -50 L 7.5 -17.800781 C 7.5 -12.199219 9.199219 -7.601562 12.699219 -4.199219 C 16.199219 -0.699219 20.699219 1 26.300781 1 Z M 26.300781 1" transform="translate(241.008 430.5)"/></g></g></g><g fill="#FFF"><g><g><path d="M 29.699219 -51 C 23.300781 -51 18.699219 -47.796875 15.800781 -41.398438 L 15.800781 -50 L 9.300781 -50 L 9.300781 0 L 15.800781 0 L 15.800781 -28 C 15.800781 -32.597656 17.097656 -36.5 19.800781 -39.699219 C 22.5 -42.898438 25.800781 -44.5 29.800781 -44.5 C 31.398438 -44.5 33.097656 -44.097656 34.898438 -43.300781 L 34.898438 -50 C 33.199219 -50.597656 31.5 -51 29.699219 -51 Z M 29.699219 -51" transform="translate(293.506 430.5)"/></g></g></g><g fill="#FFF"><g><g><path d="M 32.398438 -50 L 18.699219 -50 L 18.699219 -61.097656 C 18.699219 -63.597656 19.398438 -65.699219 20.800781 -67.296875 C 22.199219 -68.898438 24.097656 -69.699219 26.5 -69.699219 C 28.5 -69.699219 30.398438 -69 32.199219 -67.796875 L 32.199219 -74.5 C 30.699219 -75.5 28.597656 -76 25.800781 -76 C 21.699219 -76 18.398438 -74.699219 15.898438 -72.097656 C 13.398438 -69.5 12.199219 -66.097656 12.199219 -61.898438 L 12.199219 -50 L 3.800781 -50 L 3.800781 -43.597656 L 12.199219 -43.597656 L 12.199219 0 L 18.699219 0 L 18.699219 -43.597656 L 32.398438 -43.597656 Z M 32.398438 -50" transform="translate(329.905 430.5)"/></g></g></g><g fill="#FFF"><g><g><path d="M 31.597656 1 C 38.800781 1 44.898438 -1.5 50 -6.601562 C 55 -11.601562 57.597656 -17.800781 57.597656 -25 C 57.597656 -32.199219 55 -38.300781 50 -43.398438 C 44.898438 -48.398438 38.800781 -51 31.597656 -51 C 24.398438 -51 18.300781 -48.398438 13.199219 -43.398438 C 8.101562 -38.300781 5.601562 -32.199219 5.601562 -25 C 5.601562 -17.800781 8.101562 -11.601562 13.199219 -6.601562 C 18.300781 -1.5 24.398438 1 31.597656 1 Z M 31.597656 -5.5 C 26.199219 -5.5 21.597656 -7.398438 17.800781 -11.199219 C 14 -15 12.199219 -19.597656 12.199219 -25 C 12.199219 -30.398438 14 -35 17.800781 -38.800781 C 21.597656 -42.597656 26.199219 -44.5 31.597656 -44.5 C 37 -44.5 41.597656 -42.597656 45.398438 -38.800781 C 49.199219 -35 51.097656 -30.398438 51.097656 -25 C 51.097656 -19.597656 49.199219 -15 45.398438 -11.199219 C 41.597656 -7.398438 37 -5.5 31.597656 -5.5 Z M 31.597656 -5.5" transform="translate(363.904 430.5)"/></g></g></g><g fill="#FFF"><g><g><path d="M 26.300781 1 C 31.800781 1 36.300781 -0.699219 39.800781 -4.199219 C 43.199219 -7.601562 45 -12.199219 45 -17.800781 L 45 -50 L 38.5 -50 L 38.5 -18.5 C 38.5 -14.601562 37.300781 -11.5 35.097656 -9.101562 C 32.800781 -6.699219 29.898438 -5.5 26.300781 -5.5 C 22.699219 -5.5 19.800781 -6.699219 17.5 -9.101562 C 15.199219 -11.5 14.101562 -14.601562 14.101562 -18.5 L 14.101562 -50 L 7.5 -50 L 7.5 -17.800781 C 7.5 -12.199219 9.199219 -7.601562 12.699219 -4.199219 C 16.199219 -0.699219 20.699219 1 26.300781 1 Z M 26.300781 1" transform="translate(427.201 430.5)"/></g></g></g><g fill="#FFF"><g><g><path d="M 29.699219 -51 C 23.300781 -51 18.699219 -47.796875 15.800781 -41.398438 L 15.800781 -50 L 9.300781 -50 L 9.300781 0 L 15.800781 0 L 15.800781 -28 C 15.800781 -32.597656 17.097656 -36.5 19.800781 -39.699219 C 22.5 -42.898438 25.800781 -44.5 29.800781 -44.5 C 31.398438 -44.5 33.097656 -44.097656 34.898438 -43.300781 L 34.898438 -50 C 33.199219 -50.597656 31.5 -51 29.699219 -51 Z M 29.699219 -51" transform="translate(479.7 430.5)"/></g></g></g><g fill="#FFF"><g><g><path d="M 9.800781 1 C 11.101562 1 12.199219 0.601562 13.199219 -0.398438 C 14.199219 -1.398438 14.699219 -2.5 14.699219 -3.898438 C 14.699219 -5.101562 14.199219 -6.300781 13.199219 -7.300781 C 12.199219 -8.300781 11.101562 -8.800781 9.800781 -8.800781 C 8.398438 -8.800781 7.300781 -8.300781 6.300781 -7.300781 C 5.300781 -6.300781 4.898438 -5.101562 4.898438 -3.898438 C 4.898438 -2.5 5.300781 -1.398438 6.300781 -0.398438 C 7.300781 0.601562 8.398438 1 9.800781 1 Z M 9.800781 1" transform="translate(516.098 430.5)"/></g></g></g><g fill="#FFF"><g><g><path d="M 12.699219 -66.296875 C 14 -66.296875 15.101562 -66.699219 16.097656 -67.699219 C 17.097656 -68.597656 17.597656 -69.699219 17.597656 -71.097656 C 17.597656 -72.5 17.097656 -73.597656 16.097656 -74.597656 C 15.101562 -75.5 14 -76 12.699219 -76 C 11.300781 -76 10.199219 -75.5 9.199219 -74.597656 C 8.199219 -73.597656 7.800781 -72.5 7.800781 -71.097656 C 7.800781 -69.699219 8.199219 -68.597656 9.199219 -67.699219 C 10.199219 -66.699219 11.300781 -66.296875 12.699219 -66.296875 Z M 9.398438 0 L 15.898438 0 L 15.898438 -50 L 9.398438 -50 Z M 9.398438 0" transform="translate(535.697 430.5)"/></g></g></g><g fill="#FFF"><g><g><path d="M 31.597656 1 C 38.800781 1 44.898438 -1.5 50 -6.601562 C 55 -11.601562 57.597656 -17.800781 57.597656 -25 C 57.597656 -32.199219 55 -38.300781 50 -43.398438 C 44.898438 -48.398438 38.800781 -51 31.597656 -51 C 24.398438 -51 18.300781 -48.398438 13.199219 -43.398438 C 8.101562 -38.300781 5.601562 -32.199219 5.601562 -25 C 5.601562 -17.800781 8.101562 -11.601562 13.199219 -6.601562 C 18.300781 -1.5 24.398438 1 31.597656 1 Z M 31.597656 -5.5 C 26.199219 -5.5 21.597656 -7.398438 17.800781 -11.199219 C 14 -15 12.199219 -19.597656 12.199219 -25 C 12.199219 -30.398438 14 -35 17.800781 -38.800781 C 21.597656 -42.597656 26.199219 -44.5 31.597656 -44.5 C 37 -44.5 41.597656 -42.597656 45.398438 -38.800781 C 49.199219 -35 51.097656 -30.398438 51.097656 -25 C 51.097656 -19.597656 49.199219 -15 45.398438 -11.199219 C 41.597656 -7.398438 37 -5.5 31.597656 -5.5 Z M 31.597656 -5.5" transform="translate(560.996 430.5)"/></g></g></g></svg>